<svg height="638" width="720" xmlns="http://www.w3.org/2000/svg">
<rect height="638" fill="#555" width="720"></rect>
<text fill="#7f7" font-family="Courier New" font-size="12" xml:space="preserve">
<tspan x="10" y="26">6 megabytes installed</tspan>
<tspan x="10" y="42"></tspan>
<tspan x="10" y="58">node_modules</tspan>
<tspan x="10" y="74">└─┬ livereloadx@0.3.9 </tspan>
<tspan x="10" y="90">  ├── commander@2.3.0 </tspan>
<tspan x="10" y="106">  ├─┬ debug@2.0.0 </tspan>
<tspan x="10" y="122">  │ └── ms@0.6.2 </tspan>
<tspan x="10" y="138">  ├─┬ fsmonitor@0.2.4 </tspan>
<tspan x="10" y="154">  │ ├── debug@0.7.4 </tspan>
<tspan x="10" y="170">  │ └── pathspec@0.9.2 </tspan>
<tspan x="10" y="186">  ├─┬ http-proxy@0.8.7 </tspan>
<tspan x="10" y="202">  │ ├── colors@0.6.2 </tspan>
<tspan x="10" y="218">  │ ├─┬ optimist@0.3.7 </tspan>
<tspan x="10" y="234">  │ │ └── wordwrap@0.0.3 </tspan>
<tspan x="10" y="250">  │ └── pkginfo@0.2.3 </tspan>
<tspan x="10" y="266">  ├─┬ minimatch@0.2.14 </tspan>
<tspan x="10" y="282">  │ ├── lru-cache@2.7.3 </tspan>
<tspan x="10" y="298">  │ └── sigmund@1.0.1 </tspan>
<tspan x="10" y="314">  ├── pause@0.0.1 </tspan>
<tspan x="10" y="330">  ├─┬ send@0.9.3 </tspan>
<tspan x="10" y="346">  │ ├── depd@0.4.5 </tspan>
<tspan x="10" y="362">  │ ├── destroy@1.0.3 </tspan>
<tspan x="10" y="378">  │ ├── escape-html@1.0.1 </tspan>
<tspan x="10" y="394">  │ ├─┬ etag@1.4.0 </tspan>
<tspan x="10" y="410">  │ │ └── crc@3.0.0 </tspan>
<tspan x="10" y="426">  │ ├── fresh@0.2.4 </tspan>
<tspan x="10" y="442">  │ ├── mime@1.2.11 </tspan>
<tspan x="10" y="458">  │ ├─┬ on-finished@2.1.0 </tspan>
<tspan x="10" y="474">  │ │ └── ee-first@1.0.5 </tspan>
<tspan x="10" y="490">  │ └── range-parser@1.0.3 </tspan>
<tspan x="10" y="506">  └─┬ ws@0.8.1 </tspan>
<tspan x="10" y="522">    ├─┬ bufferutil@1.2.1 </tspan>
<tspan x="10" y="538">    │ ├── bindings@1.2.1 </tspan>
<tspan x="10" y="554">    │ └── nan@2.6.2 </tspan>
<tspan x="10" y="570">    ├── options@0.0.6 </tspan>
<tspan x="10" y="586">    ├── ultron@1.0.2 </tspan>
<tspan x="10" y="602">    └─┬ utf-8-validate@1.2.2 </tspan>
<tspan x="10" y="618">      └── nan@2.4.0</tspan>
</text>
</svg>
